<mxfile host="app.diagrams.net" agent="Mozilla/5.0 (Windows NT 10.0; Win64; x64) AppleWebKit/537.36 (KHTML, like Gecko) Chrome/134.0.0.0 Safari/537.36 OPR/119.0.0.0" version="27.1.6">
  <diagram name="Page-1" id="-nWUFHjV_BHCzFxJWNfk">
    <mxGraphModel dx="1611" dy="777" grid="1" gridSize="10" guides="1" tooltips="1" connect="1" arrows="1" fold="1" page="1" pageScale="1" pageWidth="827" pageHeight="1169" math="0" shadow="0">
      <root>
        <mxCell id="0" />
        <mxCell id="1" parent="0" />
        <mxCell id="a5hqjzSQ4uZzkGPu6eZy-15" value="" style="edgeStyle=orthogonalEdgeStyle;rounded=0;orthogonalLoop=1;jettySize=auto;html=1;" edge="1" parent="1" source="a5hqjzSQ4uZzkGPu6eZy-1" target="a5hqjzSQ4uZzkGPu6eZy-3">
          <mxGeometry relative="1" as="geometry" />
        </mxCell>
        <mxCell id="a5hqjzSQ4uZzkGPu6eZy-1" value="Inicio" style="ellipse;whiteSpace=wrap;html=1;" vertex="1" parent="1">
          <mxGeometry x="280" y="10" width="120" height="80" as="geometry" />
        </mxCell>
        <mxCell id="a5hqjzSQ4uZzkGPu6eZy-16" value="" style="edgeStyle=orthogonalEdgeStyle;rounded=0;orthogonalLoop=1;jettySize=auto;html=1;" edge="1" parent="1" source="a5hqjzSQ4uZzkGPu6eZy-3" target="a5hqjzSQ4uZzkGPu6eZy-4">
          <mxGeometry relative="1" as="geometry" />
        </mxCell>
        <mxCell id="a5hqjzSQ4uZzkGPu6eZy-3" value="diccionario con nombre y edades" style="shape=process;whiteSpace=wrap;html=1;backgroundOutline=1;" vertex="1" parent="1">
          <mxGeometry x="230" y="120" width="220" height="60" as="geometry" />
        </mxCell>
        <mxCell id="a5hqjzSQ4uZzkGPu6eZy-17" value="" style="edgeStyle=orthogonalEdgeStyle;rounded=0;orthogonalLoop=1;jettySize=auto;html=1;" edge="1" parent="1" source="a5hqjzSQ4uZzkGPu6eZy-4" target="a5hqjzSQ4uZzkGPu6eZy-5">
          <mxGeometry relative="1" as="geometry" />
        </mxCell>
        <mxCell id="a5hqjzSQ4uZzkGPu6eZy-4" value="bucle for" style="shape=process;whiteSpace=wrap;html=1;backgroundOutline=1;" vertex="1" parent="1">
          <mxGeometry x="280" y="220" width="120" height="60" as="geometry" />
        </mxCell>
        <mxCell id="a5hqjzSQ4uZzkGPu6eZy-18" value="" style="edgeStyle=orthogonalEdgeStyle;rounded=0;orthogonalLoop=1;jettySize=auto;html=1;entryX=0.5;entryY=0;entryDx=0;entryDy=0;" edge="1" parent="1" source="a5hqjzSQ4uZzkGPu6eZy-5" target="a5hqjzSQ4uZzkGPu6eZy-6">
          <mxGeometry relative="1" as="geometry">
            <Array as="points">
              <mxPoint x="190" y="360" />
              <mxPoint x="190" y="390" />
            </Array>
          </mxGeometry>
        </mxCell>
        <mxCell id="a5hqjzSQ4uZzkGPu6eZy-20" value="" style="edgeStyle=orthogonalEdgeStyle;rounded=0;orthogonalLoop=1;jettySize=auto;html=1;" edge="1" parent="1" source="a5hqjzSQ4uZzkGPu6eZy-5" target="a5hqjzSQ4uZzkGPu6eZy-19">
          <mxGeometry relative="1" as="geometry">
            <Array as="points">
              <mxPoint x="520" y="360" />
              <mxPoint x="520" y="420" />
            </Array>
          </mxGeometry>
        </mxCell>
        <mxCell id="a5hqjzSQ4uZzkGPu6eZy-5" value="itinerar items" style="rhombus;whiteSpace=wrap;html=1;" vertex="1" parent="1">
          <mxGeometry x="290" y="310" width="105" height="100" as="geometry" />
        </mxCell>
        <mxCell id="a5hqjzSQ4uZzkGPu6eZy-24" value="" style="edgeStyle=orthogonalEdgeStyle;rounded=0;orthogonalLoop=1;jettySize=auto;html=1;entryX=0.5;entryY=0;entryDx=0;entryDy=0;" edge="1" parent="1" source="a5hqjzSQ4uZzkGPu6eZy-6" target="a5hqjzSQ4uZzkGPu6eZy-9">
          <mxGeometry relative="1" as="geometry">
            <Array as="points">
              <mxPoint x="250" y="445" />
            </Array>
          </mxGeometry>
        </mxCell>
        <mxCell id="a5hqjzSQ4uZzkGPu6eZy-27" value="" style="edgeStyle=orthogonalEdgeStyle;rounded=0;orthogonalLoop=1;jettySize=auto;html=1;" edge="1" parent="1" source="a5hqjzSQ4uZzkGPu6eZy-6" target="a5hqjzSQ4uZzkGPu6eZy-26">
          <mxGeometry relative="1" as="geometry" />
        </mxCell>
        <mxCell id="a5hqjzSQ4uZzkGPu6eZy-6" value="edad &amp;gt;= 18&amp;nbsp;" style="rhombus;whiteSpace=wrap;html=1;" vertex="1" parent="1">
          <mxGeometry x="130" y="390" width="110" height="110" as="geometry" />
        </mxCell>
        <mxCell id="a5hqjzSQ4uZzkGPu6eZy-29" value="" style="edgeStyle=orthogonalEdgeStyle;rounded=0;orthogonalLoop=1;jettySize=auto;html=1;" edge="1" parent="1" source="a5hqjzSQ4uZzkGPu6eZy-7" target="a5hqjzSQ4uZzkGPu6eZy-8">
          <mxGeometry relative="1" as="geometry" />
        </mxCell>
        <mxCell id="a5hqjzSQ4uZzkGPu6eZy-7" value="Filtrar mayores de edad" style="rounded=0;whiteSpace=wrap;html=1;" vertex="1" parent="1">
          <mxGeometry x="430" y="420" width="200" height="60" as="geometry" />
        </mxCell>
        <mxCell id="a5hqjzSQ4uZzkGPu6eZy-36" value="" style="edgeStyle=orthogonalEdgeStyle;rounded=0;orthogonalLoop=1;jettySize=auto;html=1;" edge="1" parent="1" source="a5hqjzSQ4uZzkGPu6eZy-8" target="a5hqjzSQ4uZzkGPu6eZy-11">
          <mxGeometry relative="1" as="geometry" />
        </mxCell>
        <mxCell id="a5hqjzSQ4uZzkGPu6eZy-8" value="crear lista con comprensiÃ³n" style="rounded=0;whiteSpace=wrap;html=1;" vertex="1" parent="1">
          <mxGeometry x="430" y="525" width="200" height="60" as="geometry" />
        </mxCell>
        <mxCell id="a5hqjzSQ4uZzkGPu6eZy-9" value="ignorar" style="rounded=0;whiteSpace=wrap;html=1;" vertex="1" parent="1">
          <mxGeometry x="190" y="700" width="120" height="60" as="geometry" />
        </mxCell>
        <mxCell id="a5hqjzSQ4uZzkGPu6eZy-10" value="print: nombre y edad" style="rounded=0;whiteSpace=wrap;html=1;" vertex="1" parent="1">
          <mxGeometry x="20" y="570" width="200" height="60" as="geometry" />
        </mxCell>
        <mxCell id="a5hqjzSQ4uZzkGPu6eZy-37" value="" style="edgeStyle=orthogonalEdgeStyle;rounded=0;orthogonalLoop=1;jettySize=auto;html=1;" edge="1" parent="1" source="a5hqjzSQ4uZzkGPu6eZy-11" target="a5hqjzSQ4uZzkGPu6eZy-12">
          <mxGeometry relative="1" as="geometry" />
        </mxCell>
        <mxCell id="a5hqjzSQ4uZzkGPu6eZy-11" value="zip" style="rounded=0;whiteSpace=wrap;html=1;" vertex="1" parent="1">
          <mxGeometry x="430" y="630" width="200" height="60" as="geometry" />
        </mxCell>
        <mxCell id="a5hqjzSQ4uZzkGPu6eZy-38" value="" style="edgeStyle=orthogonalEdgeStyle;rounded=0;orthogonalLoop=1;jettySize=auto;html=1;" edge="1" parent="1" source="a5hqjzSQ4uZzkGPu6eZy-12" target="a5hqjzSQ4uZzkGPu6eZy-13">
          <mxGeometry relative="1" as="geometry" />
        </mxCell>
        <mxCell id="a5hqjzSQ4uZzkGPu6eZy-12" value="Formatear strings" style="rounded=0;whiteSpace=wrap;html=1;" vertex="1" parent="1">
          <mxGeometry x="430" y="740" width="200" height="60" as="geometry" />
        </mxCell>
        <mxCell id="a5hqjzSQ4uZzkGPu6eZy-39" value="" style="edgeStyle=orthogonalEdgeStyle;rounded=0;orthogonalLoop=1;jettySize=auto;html=1;" edge="1" parent="1" source="a5hqjzSQ4uZzkGPu6eZy-13" target="a5hqjzSQ4uZzkGPu6eZy-14">
          <mxGeometry relative="1" as="geometry" />
        </mxCell>
        <mxCell id="a5hqjzSQ4uZzkGPu6eZy-13" value="Return lista_final" style="rounded=0;whiteSpace=wrap;html=1;" vertex="1" parent="1">
          <mxGeometry x="430" y="840" width="200" height="60" as="geometry" />
        </mxCell>
        <mxCell id="a5hqjzSQ4uZzkGPu6eZy-14" value="Fin" style="ellipse;whiteSpace=wrap;html=1;" vertex="1" parent="1">
          <mxGeometry x="470" y="980" width="120" height="80" as="geometry" />
        </mxCell>
        <mxCell id="a5hqjzSQ4uZzkGPu6eZy-19" value="" style="shape=waypoint;sketch=0;size=6;pointerEvents=1;points=[];fillColor=default;resizable=0;rotatable=0;perimeter=centerPerimeter;snapToPoint=1;" vertex="1" parent="1">
          <mxGeometry x="520" y="410" width="20" height="20" as="geometry" />
        </mxCell>
        <mxCell id="a5hqjzSQ4uZzkGPu6eZy-21" value="Si" style="text;html=1;align=center;verticalAlign=middle;whiteSpace=wrap;rounded=0;" vertex="1" parent="1">
          <mxGeometry x="120" y="370" width="60" height="30" as="geometry" />
        </mxCell>
        <mxCell id="a5hqjzSQ4uZzkGPu6eZy-22" value="No" style="text;html=1;align=center;verticalAlign=middle;whiteSpace=wrap;rounded=0;" vertex="1" parent="1">
          <mxGeometry x="500" y="300" width="60" height="30" as="geometry" />
        </mxCell>
        <mxCell id="a5hqjzSQ4uZzkGPu6eZy-25" value="No" style="text;html=1;align=center;verticalAlign=middle;whiteSpace=wrap;rounded=0;" vertex="1" parent="1">
          <mxGeometry x="190" y="500" width="60" height="60" as="geometry" />
        </mxCell>
        <mxCell id="a5hqjzSQ4uZzkGPu6eZy-26" value="" style="shape=waypoint;sketch=0;size=6;pointerEvents=1;points=[];fillColor=default;resizable=0;rotatable=0;perimeter=centerPerimeter;snapToPoint=1;" vertex="1" parent="1">
          <mxGeometry x="100" y="550" width="20" height="20" as="geometry" />
        </mxCell>
        <mxCell id="a5hqjzSQ4uZzkGPu6eZy-28" value="Si" style="text;html=1;align=center;verticalAlign=middle;whiteSpace=wrap;rounded=0;" vertex="1" parent="1">
          <mxGeometry x="50" y="495" width="60" height="30" as="geometry" />
        </mxCell>
        <mxCell id="a5hqjzSQ4uZzkGPu6eZy-33" value="" style="endArrow=classic;html=1;rounded=0;entryX=0.5;entryY=1;entryDx=0;entryDy=0;" edge="1" parent="1" target="a5hqjzSQ4uZzkGPu6eZy-5">
          <mxGeometry width="50" height="50" relative="1" as="geometry">
            <mxPoint x="290" y="700" as="sourcePoint" />
            <mxPoint x="340" y="650" as="targetPoint" />
          </mxGeometry>
        </mxCell>
        <mxCell id="a5hqjzSQ4uZzkGPu6eZy-34" value="" style="endArrow=classic;html=1;rounded=0;" edge="1" parent="1">
          <mxGeometry width="50" height="50" relative="1" as="geometry">
            <mxPoint x="50" y="560" as="sourcePoint" />
            <mxPoint x="309.99584707646176" y="336.85157421289364" as="targetPoint" />
            <Array as="points">
              <mxPoint x="50" y="350" />
            </Array>
          </mxGeometry>
        </mxCell>
      </root>
    </mxGraphModel>
  </diagram>
</mxfile>
